<?xml version="1.0" encoding="utf-8"?>
<svg viewBox="0 0 500 500" xmlns="http://www.w3.org/2000/svg" xmlns:bx="https://boxy-svg.com">
  <defs>
    <filter id="drop-shadow-filter-0" color-interpolation-filters="sRGB" x="-500%" y="-500%" width="1000%" height="1000%" bx:preset="drop-shadow 1 10 10 0 0.5 rgba(245,249,249,0.3)">
      <feGaussianBlur in="SourceAlpha" stdDeviation="0"/>
      <feOffset dx="10" dy="10"/>
      <feComponentTransfer result="offsetblur">
        <feFuncA id="spread-ctrl" type="linear" slope="1"/>
      </feComponentTransfer>
      <feFlood flood-color="rgba(245,249,249,0.3)"/>
      <feComposite in2="offsetblur" operator="in"/>
      <feMerge>
        <feMergeNode/>
        <feMergeNode in="SourceGraphic"/>
      </feMerge>
    </filter>
  </defs>
  <g transform="matrix(0.07216, 0, 0, -0.073266, -9.751786, 502.759552)" fill="#000000" stroke="none" style="">
    <path d="M3653 6499 c-39 -11 -83 -62 -83 -95 0 -14 11 -36 25 -49 51 -52 185 -22 209 46 27 78 -49 127 -151 98z" style="stroke: rgb(45, 25, 116); paint-order: fill;"/>
    <path d="M725 6476 c-99 -32 -166 -81 -216 -158 -107 -166 -87 -376 48 -511 101 -102 236 -131 405 -89 64 17 92 19 123 12 22 -5 41 -7 43 -6 2 2 -4 30 -14 62 -19 67 -15 169 10 228 l15 36 -119 0 -119 0 16 -42 c19 -53 22 -189 4 -240 -12 -36 -15 -38 -57 -38 -118 0 -191 104 -202 287 -9 162 36 301 122 381 117 108 239 51 281 -133 l11 -49 12 95 c6 52 14 109 18 126 l6 31 -78 6 c-216 15 -270 15 -309 2z" style="stroke: rgb(45, 25, 116); paint-order: fill;"/>
    <path d="M2925 6445 c40 -197 39 -504 -1 -702 l-6 -33 122 0 122 0 -6 28 c-12 59 -25 161 -32 250 l-7 92 69 0 c81 0 140 -25 183 -77 l29 -35 0 125 0 126 -31 -36 c-45 -51 -98 -73 -181 -73 l-68 0 6 83 c4 45 12 122 18 170 l11 89 55 -7 c136 -17 237 -89 283 -200 12 -28 13 -25 20 56 5 48 13 105 18 128 l9 40 -310 3 -310 3 7 -30z" style="stroke: rgb(45, 25, 116); paint-order: fill;"/>
    <path d="M1388 6361 c-22 -40 -38 -54 -89 -80 -36 -18 -78 -31 -100 -31 -44 0 -58 -22 -24 -38 13 -6 32 -23 41 -38 26 -39 23 -165 -6 -277 -26 -103 -19 -152 26 -182 40 -26 116 -22 170 10 80 47 119 139 76 178 -25 23 -90 21 -129 -3 l-33 -20 20 -32 c52 -86 -10 -165 -84 -107 -20 16 -26 29 -26 58 0 32 7 45 43 78 23 21 64 48 90 59 l48 19 -7 97 c-3 53 -3 113 0 132 7 35 8 36 52 36 28 0 43 4 39 10 -3 6 -24 10 -46 10 -48 0 -48 -3 -14 148 9 40 -19 24 -47 -27z" style="stroke: rgb(45, 25, 116); paint-order: fill;"/>
    <path d="M1865 6243 c-45 -23 -64 -43 -97 -98 -33 -55 -32 -57 -12 58 l6 37 -112 0 c-101 0 -111 -2 -106 -17 41 -134 41 -556 -1 -720 -5 -23 -4 -23 106 -23 61 0 111 4 111 8 0 5 -7 53 -15 108 -8 54 -15 108 -15 118 0 18 1 18 20 1 30 -27 126 -17 180 19 53 35 113 128 135 210 34 125 5 258 -65 299 -35 21 -96 21 -135 0z m24 -82 c27 -27 35 -95 22 -180 -22 -142 -76 -241 -132 -241 -44 0 -52 26 -47 160 4 108 7 123 37 184 20 41 43 72 59 81 35 19 39 18 61 -4z" style="stroke: rgb(45, 25, 116); paint-order: fill;"/>
    <path d="M2262 6241 c-109 -37 -147 -112 -103 -200 23 -43 42 -58 160 -121 99 -53 126 -83 116 -130 -9 -39 -58 -73 -95 -65 -62 15 -95 91 -56 134 16 18 15 20 -27 40 -85 41 -155 15 -144 -55 13 -82 98 -136 223 -142 99 -5 167 14 212 61 53 55 65 112 35 174 -23 49 -79 86 -185 124 -110 39 -130 62 -105 114 23 47 59 69 94 58 36 -12 40 -35 13 -71 -39 -52 5 -92 87 -79 108 18 111 130 4 166 -51 17 -168 13 -229 -8z" style="stroke: rgb(45, 25, 116); paint-order: fill;"/>
    <path d="M4195 6236 c-65 -39 -104 -103 -135 -219 l-19 -72 5 65 c6 64 20 163 31 208 5 22 4 22 -106 22 -110 0 -111 0 -106 -22 34 -153 40 -243 21 -363 -9 -55 -18 -110 -22 -122 -6 -23 -6 -23 105 -23 l112 0 -7 93 c-4 54 -2 123 5 167 13 90 63 194 104 218 27 16 29 16 43 -2 21 -29 17 -104 -11 -228 -18 -74 -25 -132 -23 -177 l3 -66 112 -3 112 -3 -20 46 c-35 78 -41 151 -24 271 15 106 14 121 -7 177 -22 58 -105 74 -173 33z" style="stroke: rgb(45, 25, 116); paint-order: fill;"/>
    <path d="M4616 6244 c-129 -47 -156 -154 -39 -154 36 0 50 6 74 29 16 17 29 40 29 54 0 14 9 35 19 48 l19 24 29 -21 c39 -29 58 -90 43 -143 -11 -41 -11 -41 -38 -27 -140 70 -322 -41 -322 -197 0 -95 57 -157 145 -157 52 0 89 16 125 55 l25 27 5 -34 5 -33 112 -3 113 -3 -20 45 c-32 77 -41 150 -29 246 17 133 -10 203 -95 241 -49 22 -144 24 -200 3z m115 -214 c37 -20 18 -161 -30 -229 -44 -61 -101 -27 -101 59 0 57 42 145 78 165 33 17 29 17 53 5z" style="stroke: rgb(45, 25, 116); paint-order: fill;"/>
    <path d="M5335 6236 c-65 -39 -104 -103 -135 -219 l-19 -72 5 65 c6 64 20 163 31 208 5 22 4 22 -107 22 -101 0 -111 -2 -106 -17 39 -140 40 -330 1 -486 l-7 -27 112 0 111 0 -7 93 c-4 54 -2 123 5 167 13 90 63 194 104 218 27 16 29 16 43 -2 21 -29 17 -107 -11 -226 -14 -60 -25 -136 -25 -177 l0 -73 114 0 115 0 -20 45 c-35 79 -42 155 -24 275 9 58 13 115 9 126 -19 59 -30 76 -55 89 -41 22 -88 18 -134 -9z" style="stroke: rgb(45, 25, 116); paint-order: fill;"/>
    <path d="M5777 6246 c-94 -34 -157 -107 -178 -204 -30 -146 31 -275 154 -327 48 -20 149 -19 190 1 101 51 145 155 83 196 -21 15 -79 8 -116 -13 l-38 -21 24 -36 c30 -44 32 -97 3 -112 -33 -18 -89 17 -117 73 -47 91 -38 255 19 355 45 80 119 106 119 42 0 -15 -9 -39 -20 -53 -24 -31 -26 -60 -3 -82 13 -13 28 -16 67 -12 40 3 55 11 78 36 32 36 34 50 12 92 -33 66 -179 100 -277 65z" style="stroke: rgb(45, 25, 116); paint-order: fill;"/>
    <path d="M6287 6246 c-104 -38 -176 -137 -185 -257 -12 -167 95 -289 256 -289 74 0 124 22 170 75 24 27 32 45 32 74 0 70 -61 91 -141 51 l-40 -21 21 -29 c30 -42 38 -99 16 -116 -19 -13 -66 -5 -93 17 -21 18 -50 79 -58 120 l-7 36 59 12 c120 23 232 98 249 167 9 36 -2 93 -23 117 -47 52 -171 73 -256 43z m128 -23 c26 -25 15 -117 -21 -183 -29 -54 -84 -100 -118 -100 -17 0 -18 6 -13 63 9 88 34 153 77 198 41 44 51 46 75 22z" style="stroke: rgb(45, 25, 116); paint-order: fill;"/>
    <path d="M3580 6238 c0 -2 7 -38 15 -81 8 -43 15 -123 15 -177 0 -54 -7 -134 -15 -177 -8 -43 -15 -81 -15 -85 0 -5 50 -8 111 -8 111 0 111 0 105 23 -4 12 -13 67 -22 122 -19 121 -14 207 21 363 5 22 4 22 -105 22 -60 0 -110 -1 -110 -2z" style="stroke: rgb(45, 25, 116); paint-order: fill;"/>
    <path d="M2713 5825 c-52 -22 -69 -77 -35 -108 12 -11 36 -17 66 -17 39 0 53 5 77 29 36 36 37 63 3 90 -31 24 -66 26 -111 6z" style="stroke: rgb(45, 25, 116); paint-order: fill;"/>
    <path d="M2209 5451 c-51 -16 -85 -49 -332 -321 -137 -151 -275 -302 -306 -336 -31 -33 -74 -80 -96 -105 -112 -124 -350 -386 -435 -479 -141 -153 -155 -178 -155 -264 1 -84 7 -97 129 -271 46 -66 132 -190 191 -275 58 -85 142 -207 186 -270 44 -63 106 -153 138 -200 32 -47 107 -156 167 -242 60 -87 156 -226 214 -310 58 -84 130 -188 161 -233 30 -44 89 -129 131 -190 41 -60 110 -159 151 -220 42 -60 109 -157 149 -215 39 -58 86 -125 103 -150 17 -25 67 -97 110 -160 44 -63 123 -178 177 -255 53 -77 115 -167 138 -200 257 -374 253 -369 310 -397 69 -36 135 -37 205 -4 59 28 71 40 160 171 38 55 84 123 104 150 38 54 139 200 229 333 31 45 143 206 247 357 105 151 240 347 300 435 61 88 154 224 208 302 54 78 142 205 195 282 53 78 109 159 125 181 16 22 79 113 140 202 193 280 393 570 554 803 206 297 206 297 200 386 -3 54 -10 80 -27 105 -21 30 -157 189 -184 214 -6 6 -77 83 -158 173 -82 89 -214 235 -295 324 -82 90 -152 168 -158 174 -5 6 -28 31 -50 55 -22 24 -110 121 -195 214 -84 94 -176 186 -203 205 l-49 35 -1226 2 c-675 1 -1239 -2 -1253 -6z m2320 -478 c16 -16 121 -129 233 -253 111 -125 316 -350 453 -500 138 -151 254 -280 258 -287 4 -6 3 -14 -1 -17 -7 -4 -171 167 -285 298 -10 12 -35 39 -55 61 -21 22 -129 141 -241 265 -112 124 -234 256 -270 293 -113 117 3 107 -1176 107 -980 0 -1025 -1 -1067 -19 -49 -21 -111 -83 -393 -396 -247 -274 -259 -287 -331 -364 -34 -36 -98 -108 -144 -158 -45 -51 -87 -90 -92 -87 -5 4 -1 16 10 28 10 11 74 82 142 156 68 74 139 153 159 175 20 22 106 117 191 210 85 94 171 188 191 210 19 22 91 100 159 173 l123 132 1053 0 1054 0 29 -27z m-94 -520 c43 -49 105 -118 139 -154 85 -91 115 -124 341 -374 109 -121 214 -237 233 -257 l35 -37 -37 -56 c-20 -31 -41 -55 -45 -53 -4 2 -99 104 -211 228 -222 245 -277 304 -301 329 -8 9 -75 83 -149 164 -78 86 -150 157 -172 168 -36 18 -69 19 -825 19 -721 -1 -791 -2 -823 -18 -21 -10 -139 -132 -303 -312 -148 -162 -304 -333 -346 -380 -43 -47 -100 -110 -127 -142 -27 -31 -53 -55 -59 -54 -16 4 -77 97 -71 109 2 7 87 102 188 213 101 111 219 241 263 290 44 48 114 125 155 169 41 44 106 115 144 158 l69 77 912 0 912 0 78 -87z m-503 -386 c115 -40 44 -47 -481 -47 -263 0 -493 3 -510 6 -34 7 -41 22 -13 30 9 3 24 9 32 14 8 5 222 9 475 9 352 1 469 -2 497 -12z m-1308 -154 c4 -5 29 -13 54 -20 157 -40 144 -34 139 -67 -2 -17 -14 -56 -26 -86 -12 -30 -33 -89 -47 -130 -15 -41 -30 -79 -35 -84 -4 -5 -43 5 -91 23 -46 18 -99 38 -118 46 -41 15 -115 43 -148 56 -22 9 -17 16 94 139 95 105 122 130 144 130 15 0 30 -3 34 -7z m1724 -17 c16 -21 166 -188 200 -222 18 -19 15 -31 -10 -37 -13 -3 -88 -29 -168 -57 -204 -73 -183 -74 -214 7 -14 38 -26 71 -26 75 0 4 -5 19 -12 35 -25 62 -47 129 -48 144 0 10 15 19 43 26 23 6 68 18 100 26 32 8 61 17 64 21 14 14 53 4 71 -18z m-958 -231 l0 -165 -271 0 c-213 0 -270 3 -266 13 2 6 25 71 51 142 26 72 51 140 56 153 10 22 11 22 220 22 l210 0 0 -165z m558 98 c13 -38 28 -77 32 -88 10 -21 60 -166 60 -172 0 -2 -120 -2 -267 -1 l-268 3 -3 163 -2 162 212 0 213 0 23 -67z m-1410 -381 l154 -58 20 -49 c11 -28 24 -59 28 -70 5 -11 12 -31 15 -45 4 -14 13 -38 20 -55 39 -90 217 -586 213 -591 -3 -2 -22 19 -43 48 -21 29 -85 116 -142 193 -99 134 -344 465 -465 629 -32 43 -58 82 -58 86 0 5 24 0 53 -11 28 -11 121 -46 205 -77z m2018 4 c-161 -218 -271 -367 -451 -610 -184 -248 -229 -298 -192 -214 8 18 27 67 42 108 15 41 36 98 47 125 11 28 24 64 29 80 5 17 13 39 18 50 5 11 39 103 77 205 37 102 68 186 69 188 1 1 49 18 106 38 57 20 111 38 119 41 40 16 176 62 183 63 4 0 -17 -33 -47 -74z m-1166 -791 c0 -388 -3 -705 -7 -705 -5 0 -35 72 -68 161 -33 88 -67 179 -76 202 -9 23 -29 76 -44 117 -15 41 -33 89 -41 107 -8 17 -14 36 -14 42 0 6 -4 19 -10 29 -5 9 -62 159 -126 332 -63 173 -124 336 -135 362 -10 26 -19 49 -19 52 0 3 122 6 270 6 l270 0 0 -705z m650 700 c0 -7 -458 -1236 -474 -1270 -7 -16 -22 -54 -32 -82 -10 -29 -22 -53 -26 -53 -4 0 -8 317 -8 705 l0 705 270 0 c149 0 270 -2 270 -5z m-1735 -134 c-6 -5 -25 10 -25 20 0 5 6 4 14 -3 8 -7 12 -15 11 -17z m508 -684 c23 -32 161 -219 307 -415 146 -197 276 -375 290 -395 14 -20 30 -37 35 -37 6 1 39 41 75 90 36 49 113 154 171 232 276 373 440 595 453 613 8 11 64 86 123 167 60 80 118 158 129 173 26 36 86 118 96 130 57 70 68 70 16 0 -18 -24 -82 -116 -143 -205 -60 -89 -126 -183 -145 -210 -19 -27 -54 -77 -78 -112 -209 -305 -220 -320 -361 -523 -53 -77 -142 -205 -196 -285 -55 -80 -109 -159 -121 -174 l-21 -29 -74 107 c-41 59 -94 136 -119 171 -25 35 -94 136 -155 225 -60 88 -175 255 -255 370 -407 588 -530 768 -530 778 0 5 380 -501 503 -671z" style="stroke: rgb(45, 25, 116); paint-order: fill;"/>
  </g>
  <g transform="matrix(0.022169, 0, 0, -0.023144, -11.903625, 522.29071)" fill="#000000" stroke="none" style="filter: url(#drop-shadow-filter-0); opacity: 0.85;">
    <path d="M12052 21380 c-91 -24 -158 -60 -212 -114 -81 -79 -115 -183 -89 -273 18 -65 96 -144 164 -166 80 -26 189 -31 275 -13 208 44 340 172 340 328 -1 107 -54 184 -159 231 -68 30 -222 34 -319 7z" style="fill: rgb(100, 14, 170);"/>
    <path d="M2575 21339 c-557 -72 -982 -475 -1107 -1052 -29 -135 -31 -389 -4 -517 86 -415 334 -738 702 -917 276 -133 608 -157 918 -66 261 76 252 75 376 70 95 -3 130 -9 201 -34 l87 -31 -33 72 c-127 277 -121 719 14 984 l21 42 -395 0 c-217 0 -395 -2 -395 -4 0 -2 13 -33 30 -68 111 -247 119 -638 17 -908 -27 -74 -33 -77 -148 -79 -97 -2 -164 14 -257 60 -221 108 -365 358 -418 725 -25 170 -22 478 5 628 61 343 186 606 376 791 128 126 240 182 380 192 84 6 169 -19 252 -73 154 -103 277 -349 335 -672 l12 -67 17 185 c19 206 39 351 75 549 14 73 23 136 20 138 -2 2 -24 -1 -47 -8 -24 -6 -107 -12 -184 -13 -125 0 -153 3 -265 31 -69 18 -160 37 -203 42 -91 13 -282 12 -382 0z" style="fill: rgb(100, 14, 170);"/>
    <path d="M9600 21286 c0 -2 9 -46 19 -97 138 -671 138 -1617 0 -2288 -10 -51 -19 -97 -19 -102 0 -5 171 -9 395 -9 217 0 395 3 395 8 0 4 -9 54 -20 112 -54 275 -88 581 -97 860 -5 184 -4 207 11 219 24 20 370 10 446 -14 162 -50 290 -149 428 -330 l23 -30 -7 115 c-10 149 -10 451 -1 610 l7 125 -27 -34 c-119 -148 -206 -227 -308 -276 -108 -53 -170 -65 -365 -72 -231 -8 -215 -23 -206 202 7 184 20 358 37 500 17 152 60 409 69 419 14 14 240 -12 353 -41 126 -32 219 -69 319 -130 205 -123 334 -274 429 -497 l37 -90 6 45 c3 24 8 85 11 134 9 129 42 369 70 515 14 69 25 131 25 138 0 9 -210 12 -1015 12 -558 0 -1015 -2 -1015 -4z" style="fill: rgb(100, 14, 170);"/>
    <path d="M4643 21060 c-11 -43 -72 -157 -113 -212 -123 -165 -377 -286 -638 -305 -79 -6 -83 -7 -88 -32 -3 -14 -8 -33 -10 -42 -3 -11 10 -20 50 -32 73 -23 136 -81 169 -154 40 -90 50 -187 44 -395 -6 -204 -21 -288 -89 -531 -37 -133 -43 -165 -43 -252 0 -72 5 -115 18 -153 26 -74 100 -151 179 -188 59 -27 71 -29 183 -29 138 1 203 18 317 86 159 94 291 264 314 407 15 92 -39 196 -120 233 -55 25 -165 25 -245 0 -58 -18 -166 -77 -221 -120 l-24 -19 41 -45 c139 -151 146 -377 13 -444 -84 -43 -177 -23 -263 56 -88 81 -108 189 -57 297 33 69 176 207 277 268 84 49 238 116 270 116 39 0 44 13 34 81 -29 182 -37 635 -14 767 l5 32 145 0 145 0 -7 37 c-4 21 -9 41 -11 45 -3 5 -63 8 -135 8 -116 0 -129 2 -129 18 0 37 41 285 65 396 14 65 25 119 25 122 0 2 -18 4 -41 4 -33 0 -42 -4 -46 -20z" style="fill: rgb(100, 14, 170);"/>
    <path d="M7721 20589 c-282 -29 -523 -144 -619 -296 -49 -78 -65 -143 -60 -239 4 -73 10 -94 46 -168 48 -96 128 -184 227 -249 33 -21 146 -81 252 -132 216 -105 289 -148 351 -209 120 -114 130 -265 26 -376 -115 -123 -291 -123 -414 0 -56 56 -80 111 -80 185 0 70 23 127 69 169 17 17 31 33 31 38 0 12 -132 95 -198 125 -77 34 -212 43 -277 19 -77 -30 -135 -120 -135 -209 0 -14 9 -54 20 -90 96 -311 576 -493 1047 -397 403 83 621 387 511 714 -40 122 -121 213 -267 299 -88 52 -176 90 -401 173 -247 90 -305 128 -331 214 -33 108 73 280 206 336 55 23 142 11 194 -26 66 -49 63 -99 -13 -180 -77 -82 -84 -159 -20 -230 112 -124 411 -80 530 77 18 24 38 66 44 95 53 237 -290 403 -739 357z" style="fill: rgb(100, 14, 170);"/>
    <path d="M15415 20590 c-198 -22 -398 -110 -532 -232 -102 -95 -110 -206 -20 -285 112 -98 362 -58 462 73 41 53 63 113 78 207 17 103 34 132 87 148 56 17 114 -7 174 -71 80 -85 113 -197 103 -348 -4 -72 -39 -222 -51 -222 -2 0 -30 16 -62 35 -88 53 -172 77 -295 82 -230 11 -437 -73 -601 -245 -129 -135 -187 -285 -188 -480 0 -212 74 -360 227 -452 105 -64 244 -85 369 -55 154 36 267 118 364 263 14 21 15 18 17 -50 2 -40 8 -94 14 -120 l11 -48 368 0 369 0 -44 93 c-129 272 -162 513 -115 842 49 343 9 537 -143 688 -138 137 -360 204 -592 177z m145 -755 c72 -37 88 -146 51 -350 -46 -252 -139 -443 -241 -495 -23 -12 -59 -20 -86 -20 -42 0 -51 5 -84 38 -104 110 -100 376 11 600 88 179 245 281 349 227z" style="fill: rgb(100, 14, 170);"/>
    <path d="M6245 20577 c-191 -50 -359 -210 -480 -459 -29 -58 -45 -83 -45 -67 0 35 36 258 60 373 11 54 20 100 20 102 0 2 -164 4 -365 4 -311 0 -365 -2 -365 -14 0 -8 7 -43 15 -78 132 -571 137 -1609 10 -2254 -14 -71 -25 -135 -25 -141 0 -10 80 -13 365 -13 239 0 365 3 365 10 0 6 -9 50 -19 98 -28 124 -58 331 -76 521 -20 219 -21 208 20 162 78 -86 213 -112 377 -72 302 72 543 335 672 733 52 160 61 223 61 423 -1 153 -4 194 -23 270 -48 190 -137 316 -267 377 -57 26 -81 31 -159 34 -53 2 -112 -2 -141 -9z m-88 -278 c61 -23 110 -97 132 -199 17 -76 14 -314 -4 -434 -31 -207 -81 -371 -165 -541 -91 -187 -186 -275 -280 -262 -131 17 -166 133 -157 512 7 285 43 458 136 650 73 151 150 239 238 271 47 16 64 17 100 3z" style="fill: rgb(100, 14, 170);"/>
    <path d="M13930 20572 c-235 -78 -429 -298 -531 -602 -34 -102 -66 -248 -78 -353 -7 -69 -8 -71 -16 -33 -9 46 9 340 31 486 15 101 78 414 90 445 5 13 -39 15 -364 15 l-370 0 14 -62 c70 -298 95 -476 101 -735 6 -233 -2 -355 -38 -563 -19 -114 -66 -342 -76 -367 -4 -11 64 -13 367 -13 l372 0 -6 38 c-26 166 -31 243 -30 462 0 268 16 401 69 585 83 288 241 505 367 505 43 0 86 -45 104 -108 33 -112 12 -294 -81 -698 -49 -215 -80 -390 -90 -509 -6 -71 7 -221 22 -261 4 -12 63 -14 373 -14 l369 0 -39 83 c-49 103 -93 236 -117 347 -30 141 -24 378 15 620 50 304 41 459 -31 582 -33 57 -97 115 -156 141 -65 29 -197 33 -271 9z" style="fill: rgb(100, 14, 170);"/>
    <path d="M17689 20576 c-126 -36 -271 -144 -369 -273 -61 -80 -129 -212 -169 -327 -33 -94 -81 -310 -81 -367 0 -19 -5 -41 -11 -49 -15 -21 -4 282 17 440 14 117 56 340 88 473 l14 57 -370 0 c-301 0 -369 -2 -365 -13 22 -57 83 -387 102 -552 36 -310 5 -720 -79 -1065 -8 -30 -17 -67 -20 -82 l-6 -28 371 0 371 0 -6 33 c-37 209 -44 623 -13 813 32 206 71 331 149 485 138 274 335 342 379 132 24 -117 3 -285 -81 -653 -75 -329 -92 -436 -93 -590 -1 -82 4 -152 11 -177 l13 -43 370 0 369 0 -36 71 c-55 110 -111 291 -130 419 -21 148 -14 329 21 535 35 202 43 388 21 475 -34 135 -93 215 -196 266 -45 23 -71 28 -140 31 -49 1 -104 -3 -131 -11z" style="fill: rgb(100, 14, 170);"/>
    <path d="M19165 20583 c-129 -20 -289 -81 -382 -144 -66 -45 -167 -143 -215 -208 -57 -75 -124 -221 -150 -327 -19 -76 -22 -116 -23 -274 0 -201 9 -254 65 -391 99 -239 320 -424 577 -483 282 -64 537 2 722 185 80 80 125 152 148 240 14 56 15 74 5 121 -15 66 -60 123 -116 149 -56 25 -165 25 -247 -1 -60 -18 -220 -108 -234 -131 -4 -5 14 -32 40 -60 80 -85 138 -244 121 -332 -4 -20 -17 -49 -30 -64 -21 -24 -32 -28 -94 -31 -95 -6 -161 24 -246 111 -140 142 -207 384 -193 692 15 326 105 588 256 747 85 91 138 122 209 123 47 0 57 -4 78 -28 50 -58 25 -173 -57 -265 -51 -57 -69 -98 -69 -153 0 -57 29 -100 92 -134 46 -25 64 -29 133 -30 131 0 260 49 329 125 107 119 91 265 -42 392 -68 65 -147 108 -269 144 -74 22 -111 27 -233 29 -80 2 -158 1 -175 -2z" style="fill: rgb(100, 14, 170);"/>
    <path d="M20795 20573 c-304 -65 -541 -267 -662 -563 -56 -138 -68 -207 -68 -395 0 -194 12 -256 76 -393 143 -309 415 -480 769 -485 149 -2 212 12 346 78 100 49 208 144 264 232 35 55 70 159 70 208 0 82 -51 162 -125 196 -54 25 -164 25 -246 -1 -59 -18 -220 -108 -234 -130 -3 -5 12 -28 35 -51 79 -82 142 -254 126 -344 -4 -22 -20 -51 -37 -68 -29 -29 -32 -29 -107 -25 -95 6 -164 38 -232 109 -87 91 -162 273 -176 429 l-7 67 79 8 c157 14 371 78 527 156 169 85 315 220 374 345 29 60 36 89 40 158 16 243 -146 415 -445 472 -94 18 -277 17 -367 -3z m290 -85 c58 -46 75 -144 51 -305 -48 -329 -228 -573 -475 -647 -88 -26 -84 -31 -77 92 25 376 115 631 283 794 86 84 165 108 218 66z" style="fill: rgb(100, 14, 170);"/>
    <path d="M11766 20532 c-2 -4 6 -53 20 -109 63 -270 94 -516 94 -758 0 -269 -30 -489 -115 -852 l-5 -23 370 0 c349 0 371 1 366 18 -31 107 -80 358 -102 528 -23 172 -23 476 0 649 17 134 65 389 91 484 8 30 12 58 9 63 -6 10 -721 11 -728 0z" style="fill: rgb(100, 14, 170);"/>
    <path d="M8990 19184 c-154 -41 -239 -131 -240 -252 0 -123 93 -195 254 -196 226 -2 388 141 353 312 -24 121 -192 183 -367 136z" style="fill: rgb(100, 14, 170);"/>
    <path d="M7310 17935 c-172 -42 -293 -127 -475 -332 -105 -119 -141 -159 -234 -258 -61 -65 -206 -225 -313 -345 -36 -41 -84 -93 -105 -116 -21 -23 -78 -85 -128 -139 -49 -55 -99 -108 -110 -119 -11 -12 -49 -55 -85 -96 -73 -83 -132 -150 -170 -190 -116 -124 -245 -264 -280 -305 -44 -51 -192 -215 -245 -271 -55 -57 -201 -218 -245 -269 -41 -47 -162 -180 -260 -285 -25 -27 -76 -84 -115 -126 -128 -143 -344 -381 -385 -424 -14 -14 -59 -64 -100 -110 -114 -127 -274 -304 -296 -327 -40 -42 -104 -112 -204 -223 -56 -63 -135 -151 -174 -194 -39 -44 -101 -111 -137 -150 -37 -39 -86 -91 -109 -116 -23 -25 -53 -61 -66 -80 -13 -19 -36 -53 -51 -75 -59 -83 -95 -175 -124 -310 -31 -150 24 -390 123 -529 15 -23 45 -66 65 -96 44 -68 56 -84 91 -134 15 -22 34 -49 42 -61 35 -51 71 -103 101 -145 18 -25 64 -92 103 -149 39 -57 90 -131 114 -165 23 -33 60 -88 81 -121 22 -33 58 -85 81 -115 23 -30 60 -84 83 -119 23 -35 51 -76 62 -91 33 -45 119 -170 140 -204 10 -17 25 -37 32 -44 7 -7 13 -17 13 -21 0 -4 8 -16 18 -27 10 -10 26 -33 37 -50 27 -43 108 -160 144 -209 17 -22 38 -53 47 -70 9 -16 20 -32 23 -35 7 -5 27 -34 71 -100 35 -52 121 -177 145 -210 11 -15 39 -56 62 -91 23 -35 60 -89 83 -119 23 -30 59 -82 81 -115 21 -33 58 -87 81 -121 24 -34 70 -101 103 -149 33 -48 79 -115 103 -149 23 -33 63 -92 90 -130 26 -38 56 -81 67 -96 11 -15 29 -40 39 -56 77 -115 93 -139 111 -164 11 -15 43 -60 70 -100 28 -40 59 -85 70 -100 18 -25 62 -91 108 -160 9 -14 37 -54 62 -90 26 -36 57 -81 71 -100 13 -19 44 -64 69 -100 46 -66 111 -162 130 -191 11 -18 52 -77 87 -125 13 -17 42 -60 65 -95 23 -35 60 -89 83 -119 23 -30 59 -82 81 -115 21 -33 58 -88 81 -121 24 -34 65 -95 93 -135 27 -41 63 -92 80 -113 16 -22 39 -54 50 -72 21 -33 105 -157 140 -204 11 -15 39 -56 62 -91 23 -35 49 -73 58 -84 9 -11 26 -35 38 -54 22 -35 27 -42 82 -121 17 -23 38 -54 47 -69 31 -46 42 -63 71 -99 15 -19 27 -38 27 -42 0 -5 20 -33 45 -63 25 -31 45 -58 45 -61 0 -4 19 -34 43 -67 23 -34 60 -87 82 -119 22 -32 59 -85 83 -119 23 -33 42 -63 42 -66 0 -3 19 -31 43 -62 24 -32 51 -69 60 -83 68 -100 111 -161 137 -195 16 -22 34 -49 39 -60 6 -11 26 -42 46 -70 19 -27 55 -79 80 -115 24 -36 58 -83 74 -105 17 -22 38 -53 47 -70 9 -16 20 -32 23 -35 7 -5 27 -34 71 -100 34 -51 121 -177 145 -210 11 -15 41 -58 67 -96 26 -38 61 -88 77 -111 17 -24 37 -55 46 -70 9 -16 29 -46 46 -68 16 -22 50 -69 74 -105 37 -54 97 -142 145 -210 114 -164 189 -274 232 -339 20 -31 55 -81 78 -111 23 -30 60 -84 83 -119 23 -35 52 -78 65 -95 44 -62 93 -132 126 -182 56 -85 129 -190 165 -239 17 -22 38 -53 47 -69 9 -16 20 -34 25 -40 33 -40 69 -90 69 -96 0 -4 13 -25 30 -46 16 -22 33 -43 37 -49 7 -9 74 -107 123 -180 21 -31 64 -92 99 -142 17 -24 37 -55 46 -70 9 -16 29 -46 46 -68 16 -22 51 -71 77 -109 26 -38 56 -81 67 -96 11 -15 56 -80 100 -145 44 -64 99 -145 123 -179 23 -33 53 -77 66 -96 14 -19 45 -64 71 -100 25 -36 53 -76 62 -90 46 -69 90 -135 108 -160 22 -30 107 -153 143 -208 36 -53 156 -169 194 -187 18 -9 67 -34 108 -55 41 -22 82 -40 90 -40 8 0 29 -8 45 -17 24 -14 58 -17 180 -17 133 -1 157 2 215 22 60 22 133 56 220 103 70 38 196 169 244 255 9 16 30 47 47 69 16 22 50 69 74 105 25 36 64 93 87 126 24 34 70 101 103 149 33 48 79 115 103 149 23 34 60 88 81 121 22 33 58 85 81 115 23 30 56 78 73 105 18 28 38 57 45 65 7 8 21 27 30 41 9 15 40 59 67 99 28 40 58 84 67 99 9 14 21 31 25 36 8 10 53 75 86 125 36 53 108 157 136 195 17 22 38 54 47 70 9 17 31 48 48 69 17 22 40 54 51 72 21 33 105 157 140 204 11 15 39 56 62 91 23 35 60 89 83 119 23 30 59 82 80 115 22 33 54 80 71 105 18 25 69 99 114 165 45 66 96 140 114 165 30 43 69 98 101 145 8 12 27 39 42 61 34 48 44 63 94 138 21 32 50 74 64 94 14 19 32 45 40 57 24 35 68 98 92 131 13 17 42 60 65 95 53 81 85 127 99 142 5 7 31 44 57 82 26 39 66 98 89 131 24 34 69 99 100 145 31 46 77 113 102 149 26 36 76 108 112 160 35 52 73 106 83 120 10 14 36 51 57 84 22 32 57 84 79 116 22 32 62 91 90 131 27 41 63 92 80 113 16 22 39 54 50 72 21 33 105 157 140 204 11 15 39 56 62 91 23 35 49 73 58 84 9 11 26 35 38 54 23 37 36 56 77 113 54 77 126 182 145 212 11 18 37 54 58 82 21 27 56 76 78 109 38 58 79 118 167 244 23 33 42 64 42 67 0 3 10 18 23 33 26 32 51 66 75 102 32 49 111 164 141 204 17 22 37 52 46 68 9 15 29 46 46 70 16 23 51 73 77 111 26 38 56 81 67 96 25 34 112 160 145 210 33 50 120 176 145 210 29 39 114 163 157 229 50 75 79 118 101 144 9 12 35 49 57 82 22 33 54 80 71 105 18 25 64 92 103 149 85 123 136 198 194 280 23 33 42 63 42 67 0 3 19 29 43 58 23 30 51 69 62 87 11 18 27 43 35 55 8 11 27 38 42 60 28 39 69 97 98 138 8 12 24 37 35 55 11 19 27 41 35 50 8 9 27 35 41 56 49 76 64 98 84 125 11 15 41 58 67 96 40 58 105 152 148 214 114 164 189 274 232 339 20 31 55 81 78 111 23 30 60 84 83 119 23 35 51 76 62 91 11 15 56 80 100 145 111 163 174 254 264 380 28 39 59 87 70 107 12 20 26 40 31 43 6 4 16 17 21 28 5 12 23 40 40 62 16 22 42 58 57 79 15 22 34 49 42 61 8 12 25 37 37 56 12 19 30 43 38 54 49 60 102 167 132 265 37 119 39 290 4 400 -26 84 -77 194 -98 211 -7 6 -13 15 -13 20 0 12 -61 92 -113 150 -113 123 -227 249 -277 304 -63 71 -200 221 -255 280 -81 88 -116 125 -232 255 -66 74 -136 151 -154 171 -19 20 -50 54 -69 75 -19 22 -82 91 -140 155 -58 63 -139 153 -180 199 -41 46 -90 100 -109 119 -18 20 -70 76 -115 125 -44 49 -90 99 -101 110 -11 12 -50 54 -85 95 -36 41 -74 84 -85 96 -11 12 -60 65 -110 119 -49 54 -105 114 -124 134 -18 21 -63 71 -100 112 -86 98 -263 294 -271 300 -8 6 -201 219 -295 325 -38 43 -81 91 -95 105 -31 33 -188 205 -251 274 -25 28 -72 81 -105 117 -79 87 -233 256 -264 290 -80 84 -115 124 -195 214 -131 149 -178 198 -242 252 -115 97 -188 136 -316 168 l-102 25 -3925 -1 -3925 -1 -95 -23z m7566 -1563 c60 -59 156 -163 319 -347 105 -117 133 -148 294 -321 103 -111 137 -148 211 -233 36 -41 74 -84 85 -96 96 -101 284 -307 420 -460 39 -43 81 -91 95 -105 22 -24 109 -119 256 -279 28 -31 77 -85 109 -121 83 -93 227 -250 249 -274 20 -20 168 -183 296 -326 41 -46 86 -96 100 -110 128 -136 232 -249 284 -310 44 -51 196 -219 241 -265 51 -53 155 -170 171 -193 13 -19 13 -25 -1 -52 -8 -16 -19 -30 -24 -30 -5 0 -48 44 -96 98 -118 130 -253 279 -290 318 -67 70 -117 126 -240 264 -71 80 -138 154 -150 166 -11 11 -63 67 -115 124 -52 56 -102 110 -111 119 -9 9 -45 50 -80 91 -34 41 -72 84 -84 96 -11 11 -59 63 -106 115 -48 52 -106 114 -129 139 -23 25 -74 81 -113 125 -69 78 -217 242 -267 295 -50 53 -209 227 -265 290 -102 114 -281 310 -369 404 -21 23 -70 77 -109 121 -292 331 -462 501 -546 543 -35 17 -70 32 -78 32 -8 0 -35 10 -61 23 l-47 22 -3395 0 -3395 0 -60 -24 c-188 -74 -228 -104 -430 -325 -49 -55 -101 -111 -115 -126 -28 -30 -116 -127 -272 -301 -58 -63 -113 -124 -124 -135 -10 -11 -59 -65 -109 -119 -49 -54 -99 -107 -110 -119 -11 -11 -35 -39 -54 -61 -33 -39 -188 -210 -246 -270 -33 -35 -45 -48 -243 -270 -74 -82 -142 -157 -151 -166 -15 -15 -140 -151 -246 -267 -27 -31 -57 -63 -65 -72 -8 -9 -46 -52 -85 -95 -38 -44 -77 -87 -85 -95 -8 -9 -67 -72 -130 -140 -63 -68 -124 -134 -135 -145 -11 -12 -49 -55 -84 -96 -35 -40 -112 -126 -171 -189 -59 -63 -130 -139 -156 -169 -27 -30 -79 -86 -115 -125 l-66 -69 -17 26 c-11 16 -14 31 -9 40 7 14 111 132 173 197 127 135 232 249 284 310 42 49 192 215 241 266 50 52 197 214 272 299 39 44 85 96 104 117 19 20 77 83 129 139 52 56 122 132 156 168 34 36 92 102 130 145 38 44 78 89 89 101 11 11 70 74 130 140 61 65 119 128 130 140 11 12 49 55 85 96 80 91 110 124 265 291 39 41 102 111 141 154 39 43 117 131 174 194 57 63 113 124 124 136 23 23 164 176 247 270 144 161 209 232 263 286 l59 58 3482 0 3482 0 59 -58z m-548 -1452 c17 -11 32 -23 32 -27 0 -5 33 -42 73 -84 88 -94 214 -231 332 -364 83 -93 134 -150 195 -215 171 -184 244 -263 280 -305 45 -53 198 -222 240 -265 28 -29 191 -208 295 -325 39 -43 81 -90 95 -105 104 -112 256 -278 365 -400 91 -101 227 -250 260 -285 40 -41 193 -209 242 -265 80 -92 129 -146 236 -258 37 -39 67 -76 67 -82 0 -14 -48 -99 -67 -120 -8 -8 -33 -44 -56 -79 -82 -124 -127 -183 -137 -179 -3 2 -38 39 -77 83 -39 44 -85 96 -104 117 -19 20 -74 80 -124 134 -49 54 -99 107 -110 119 -11 12 -61 68 -112 126 -50 57 -110 125 -134 150 -24 25 -84 90 -134 144 -49 54 -99 108 -109 118 -11 11 -46 52 -80 91 -33 39 -69 80 -81 92 -11 11 -60 64 -110 118 -49 54 -106 115 -125 136 -19 20 -67 72 -105 116 -66 75 -253 281 -285 315 -77 80 -156 167 -213 234 -38 44 -97 110 -131 146 -33 36 -101 110 -151 164 -49 54 -101 110 -115 125 -14 15 -70 78 -125 140 -176 200 -228 244 -347 297 l-63 28 -2607 3 -2606 2 -79 -31 c-43 -17 -85 -37 -94 -45 -8 -8 -20 -14 -26 -14 -6 0 -69 -61 -139 -137 -71 -75 -138 -146 -149 -157 -11 -12 -50 -55 -85 -96 -36 -41 -72 -81 -80 -90 -8 -9 -58 -63 -110 -120 -52 -57 -104 -113 -115 -124 -12 -12 -79 -86 -150 -166 -71 -80 -147 -165 -169 -189 -23 -24 -52 -56 -66 -71 -163 -177 -215 -234 -261 -286 -92 -103 -202 -224 -249 -274 -75 -80 -204 -222 -246 -270 -46 -53 -246 -273 -254 -280 -7 -6 -183 -200 -272 -300 -36 -41 -84 -93 -105 -116 -53 -57 -158 -174 -180 -203 -19 -23 -20 -23 -47 -6 -15 10 -34 32 -43 49 -9 17 -25 43 -37 57 -21 26 -30 39 -64 90 -56 85 -72 108 -82 114 -5 3 -10 18 -10 33 0 19 19 47 68 98 37 39 99 106 137 149 77 87 275 304 302 333 29 29 183 199 279 307 77 87 128 142 244 265 14 14 57 62 95 105 116 131 277 309 299 331 12 11 59 62 106 114 47 52 94 103 105 115 11 12 49 55 85 96 35 41 74 83 85 95 11 11 61 64 110 119 50 54 107 117 129 139 21 23 68 75 105 116 65 73 230 255 285 315 16 17 65 70 110 119 44 50 104 114 132 143 l51 53 2974 0 c2947 0 2974 0 3007 -20z m-1444 -1529 c17 -11 54 -22 81 -26 55 -8 78 -18 105 -45 9 -9 24 -20 31 -22 24 -9 5 -18 -67 -33 -38 -8 -85 -22 -104 -32 -33 -17 -118 -18 -1600 -18 l-1565 0 -77 28 c-42 15 -85 27 -95 27 -25 0 -52 20 -36 26 7 3 28 18 47 33 21 17 53 31 80 34 24 4 60 16 78 27 33 20 44 20 1562 20 1488 0 1529 -1 1560 -19z m-4254 -533 c14 -9 49 -19 79 -22 30 -4 71 -16 92 -27 21 -10 53 -19 71 -19 18 0 56 -12 83 -25 28 -14 66 -25 85 -25 20 0 54 -9 75 -20 22 -12 60 -23 85 -27 60 -8 77 -17 82 -48 6 -29 -12 -103 -41 -165 -11 -25 -21 -53 -21 -64 0 -10 -9 -33 -19 -50 -10 -17 -22 -47 -26 -66 -4 -19 -16 -52 -26 -72 -11 -21 -19 -45 -19 -55 0 -10 -11 -40 -25 -68 -13 -27 -25 -59 -25 -70 0 -11 -9 -37 -20 -57 -11 -21 -25 -59 -30 -85 -6 -26 -17 -54 -25 -63 -7 -8 -16 -33 -20 -55 -4 -22 -15 -53 -25 -70 -10 -16 -20 -46 -24 -66 -4 -21 -13 -43 -21 -49 -19 -16 -83 -6 -133 20 -20 11 -44 20 -52 20 -8 0 -37 11 -65 25 -27 13 -57 25 -65 25 -8 0 -37 11 -65 25 -27 13 -58 25 -69 25 -10 0 -33 9 -50 19 -17 10 -47 22 -66 26 -19 4 -46 13 -60 21 -23 13 -78 33 -190 71 -25 8 -61 23 -81 34 -20 10 -45 19 -55 19 -11 0 -41 12 -69 25 -27 14 -56 25 -64 25 -15 0 -129 48 -149 63 -13 10 0 37 36 76 9 10 60 64 112 121 52 57 106 116 120 130 54 58 190 208 235 260 26 30 55 62 64 71 9 9 53 57 99 107 46 50 93 92 105 94 35 5 150 -17 177 -34z m5592 21 c11 -6 34 -27 52 -47 67 -78 290 -325 338 -373 15 -16 94 -102 298 -329 107 -118 111 -149 19 -164 -22 -3 -56 -15 -77 -26 -20 -11 -46 -20 -57 -20 -11 0 -36 -9 -56 -19 -20 -11 -54 -23 -75 -27 -22 -3 -52 -14 -69 -24 -16 -10 -46 -21 -65 -25 -19 -4 -54 -16 -77 -26 -23 -11 -50 -19 -59 -19 -10 0 -36 -9 -59 -20 -23 -11 -64 -27 -91 -34 -27 -8 -87 -29 -134 -46 -47 -17 -106 -38 -131 -45 -26 -7 -62 -21 -80 -31 -20 -10 -58 -18 -94 -18 -57 -1 -59 0 -68 29 -5 17 -17 48 -28 70 -10 22 -21 54 -25 70 -3 17 -14 48 -24 70 -10 22 -25 61 -34 88 -9 26 -23 68 -32 95 -9 26 -24 65 -34 87 -10 22 -21 56 -25 75 -4 19 -13 42 -20 50 -7 8 -18 38 -24 65 -7 28 -18 59 -25 70 -8 11 -17 36 -21 55 -4 19 -14 49 -23 65 -20 39 -44 124 -44 153 0 36 30 62 71 62 20 0 55 9 76 21 22 11 68 25 102 30 34 5 77 18 95 29 18 11 49 20 68 20 19 0 52 9 72 20 20 10 60 22 90 26 29 4 67 14 83 22 60 31 150 41 187 21z m-3085 -301 c20 -17 15 -1047 -6 -1071 -12 -16 -86 -17 -876 -17 -717 0 -864 2 -874 14 -9 10 -6 24 9 57 11 24 20 54 20 66 0 12 11 43 25 69 14 26 25 56 25 68 0 12 12 44 25 71 14 28 25 59 25 70 0 11 9 34 19 51 10 17 22 49 26 72 3 22 13 46 20 52 8 6 19 37 25 68 7 31 18 64 25 72 8 9 19 37 25 63 5 26 19 64 30 85 11 20 20 46 20 57 0 11 12 43 25 70 14 28 25 57 25 66 0 8 4 19 9 25 15 14 1361 7 1378 -8z m1767 6 c9 -8 16 -26 16 -38 0 -13 8 -34 19 -47 10 -13 22 -44 26 -69 4 -24 15 -56 25 -70 10 -14 21 -45 24 -69 4 -24 16 -55 26 -69 11 -13 20 -39 20 -56 0 -17 11 -52 25 -78 14 -26 25 -56 25 -67 0 -11 11 -41 25 -67 14 -26 25 -56 25 -68 0 -12 8 -35 18 -51 11 -17 22 -48 26 -70 4 -21 16 -55 26 -74 23 -46 50 -132 50 -160 l0 -21 -870 0 c-852 0 -870 0 -880 20 -7 13 -9 191 -8 537 l3 518 665 5 c366 3 673 6 682 8 9 1 24 -5 32 -14z m-5348 -1163 c14 -11 44 -23 67 -26 23 -4 53 -16 66 -26 13 -11 34 -19 46 -19 12 0 43 -11 69 -25 26 -14 56 -25 67 -25 11 0 41 -11 67 -25 26 -14 59 -25 73 -25 14 0 37 -9 51 -19 13 -11 42 -23 64 -26 21 -4 53 -15 69 -25 17 -10 46 -21 65 -25 19 -4 49 -15 65 -25 17 -10 49 -21 72 -25 22 -3 49 -15 59 -26 9 -10 30 -19 45 -19 15 0 49 -11 75 -25 26 -14 58 -25 71 -25 14 0 37 -9 52 -19 15 -11 45 -22 66 -26 62 -11 113 -51 121 -94 4 -20 14 -49 24 -66 10 -16 21 -48 25 -70 4 -22 13 -47 20 -55 8 -9 19 -37 25 -64 6 -27 20 -61 30 -77 11 -15 20 -39 20 -54 0 -14 11 -47 25 -73 14 -26 25 -57 25 -70 0 -12 9 -35 19 -50 11 -15 22 -45 26 -67 4 -22 15 -53 25 -70 9 -16 21 -47 24 -68 4 -21 16 -53 27 -70 10 -18 19 -41 19 -52 0 -11 12 -42 25 -70 14 -27 25 -59 25 -70 0 -11 9 -34 19 -52 11 -17 23 -49 26 -70 4 -21 15 -50 25 -64 10 -15 22 -44 26 -65 3 -22 13 -46 20 -54 7 -9 18 -40 25 -70 6 -30 17 -62 25 -70 7 -9 18 -37 23 -62 6 -26 20 -62 31 -80 11 -18 20 -43 20 -55 0 -12 11 -43 25 -69 14 -26 25 -56 25 -67 0 -11 8 -34 19 -51 10 -17 22 -49 26 -70 3 -22 15 -51 26 -64 10 -14 19 -37 19 -52 0 -15 11 -48 25 -74 14 -26 25 -57 25 -70 0 -13 8 -34 19 -47 10 -13 24 -50 30 -81 7 -31 18 -62 26 -68 7 -6 17 -30 20 -53 4 -23 16 -57 27 -74 21 -35 21 -88 0 -88 -7 0 -20 12 -30 27 -19 29 -122 168 -192 259 -25 32 -56 74 -70 94 -14 20 -43 60 -65 88 -22 29 -48 63 -58 77 -9 14 -29 42 -44 62 -15 21 -48 66 -72 100 -24 35 -47 65 -50 68 -7 5 -154 202 -193 258 -46 65 -98 136 -138 186 -42 52 -80 104 -80 111 0 3 -21 32 -47 65 -27 32 -59 75 -73 95 -14 20 -34 47 -45 61 -11 13 -31 40 -45 59 -45 64 -98 136 -133 180 -13 17 -41 55 -63 86 -32 46 -123 168 -189 254 -8 11 -39 53 -68 93 -28 41 -70 97 -93 125 -22 29 -61 80 -85 115 -24 34 -57 79 -72 100 -15 20 -35 48 -45 62 -9 13 -24 32 -32 42 -17 19 -29 35 -102 136 -29 40 -85 117 -125 170 -40 53 -86 116 -104 139 -17 24 -29 49 -25 58 8 21 43 19 72 -4z m7594 -46 c0 -6 -36 -60 -72 -111 -13 -17 -32 -44 -43 -60 -11 -16 -38 -52 -60 -81 -22 -28 -51 -68 -65 -88 -14 -20 -43 -60 -66 -88 -22 -29 -56 -74 -74 -102 -19 -27 -55 -76 -80 -107 -25 -31 -56 -73 -70 -93 -14 -20 -45 -63 -70 -95 -25 -32 -56 -75 -70 -95 -14 -20 -45 -62 -70 -95 -61 -79 -161 -216 -180 -245 -9 -13 -27 -38 -40 -56 -61 -79 -77 -100 -100 -134 -14 -20 -43 -60 -65 -88 -42 -54 -97 -128 -191 -257 -30 -41 -64 -86 -75 -100 -24 -31 -65 -87 -99 -135 -14 -20 -45 -63 -70 -95 -25 -32 -56 -75 -70 -95 -14 -20 -45 -63 -70 -95 -125 -164 -177 -234 -195 -263 -11 -17 -26 -39 -35 -49 -18 -20 -31 -38 -112 -148 -34 -47 -68 -89 -75 -93 -7 -4 -13 -14 -13 -20 0 -11 -77 -116 -122 -167 -7 -9 -21 -28 -31 -43 -41 -63 -61 -4 -23 68 14 26 26 60 26 75 0 15 8 38 19 51 10 13 21 42 25 64 4 22 16 54 27 71 10 17 19 41 19 53 0 12 11 43 25 69 14 26 25 56 25 67 0 11 11 41 25 67 14 26 25 56 25 67 0 11 11 41 25 67 14 26 25 55 25 65 0 10 9 33 19 51 11 18 23 51 27 73 3 22 12 47 20 55 7 8 18 38 25 65 6 28 20 64 29 80 10 17 20 47 23 68 3 20 15 49 26 64 12 14 21 39 21 55 0 17 9 41 19 54 11 14 22 44 26 67 4 23 15 56 25 72 10 17 21 46 25 65 4 19 15 49 25 65 9 17 20 47 23 69 4 21 13 46 21 55 9 10 20 42 26 71 6 29 17 61 25 69 7 9 19 39 25 66 6 27 17 56 25 65 7 8 16 33 20 55 4 22 15 54 25 70 10 17 21 47 24 69 4 21 16 50 26 65 10 14 21 44 25 66 4 22 15 54 25 70 9 17 21 48 25 70 4 22 13 47 21 56 7 8 17 32 21 54 5 21 15 41 23 45 8 4 33 16 55 27 22 11 58 23 80 27 22 4 54 16 70 26 17 9 50 20 75 24 24 4 52 14 61 22 9 8 34 18 55 21 22 4 59 17 83 30 24 13 58 23 76 23 19 0 39 8 49 19 10 10 38 22 64 26 26 4 61 15 78 26 17 10 43 19 56 19 14 0 45 11 69 23 24 13 63 27 87 31 24 3 54 14 68 23 14 8 45 20 71 24 26 5 54 16 63 24 10 9 41 19 69 24 29 5 57 13 64 20 11 11 57 16 57 6z m-4016 -521 c15 -14 16 -228 14 -2317 -2 -1285 -7 -2310 -12 -2320 -13 -27 -29 -15 -43 33 -7 23 -22 61 -33 84 -11 23 -20 48 -20 55 0 7 -11 37 -25 67 -14 30 -25 60 -25 67 0 7 -8 28 -19 47 -10 19 -22 51 -26 70 -4 19 -16 49 -26 66 -10 17 -19 40 -19 50 0 11 -11 42 -25 69 -13 28 -25 57 -25 65 0 8 -11 38 -25 65 -13 28 -25 58 -25 67 0 9 -11 38 -25 64 -14 26 -25 54 -25 63 0 9 -8 32 -19 51 -10 19 -22 51 -26 70 -4 19 -16 51 -26 70 -11 19 -19 42 -19 50 0 8 -11 38 -25 65 -13 28 -25 57 -25 65 0 8 -11 38 -25 65 -13 28 -25 58 -25 68 0 10 -9 35 -19 55 -11 20 -27 60 -36 87 -9 28 -23 70 -31 95 -8 25 -24 62 -35 82 -10 20 -19 45 -19 55 0 10 -9 34 -19 54 -11 20 -25 56 -31 80 -7 24 -20 60 -30 79 -9 19 -20 51 -24 71 -4 21 -13 42 -20 48 -8 7 -17 28 -21 49 -4 20 -13 48 -21 62 -13 24 -32 77 -75 203 -10 32 -26 68 -34 80 -8 12 -15 33 -15 47 0 14 -7 35 -15 47 -8 12 -24 48 -34 80 -42 125 -62 179 -75 203 -8 14 -17 41 -21 60 -4 19 -16 51 -26 70 -11 19 -19 41 -19 49 0 8 -9 33 -19 55 -19 40 -44 106 -80 216 -10 30 -26 69 -35 85 -9 17 -16 38 -16 48 0 10 -8 35 -19 55 -17 35 -32 73 -68 182 -8 25 -23 63 -34 86 -10 23 -19 47 -19 55 0 8 -11 37 -25 64 -13 28 -25 58 -25 68 0 10 -11 43 -25 73 -14 30 -25 62 -25 72 0 9 -9 31 -19 48 -10 17 -22 46 -26 65 -4 19 -16 51 -26 71 -11 21 -19 45 -19 55 0 10 -11 41 -25 68 -13 28 -25 58 -25 68 0 10 -9 36 -21 59 -21 42 -18 53 16 61 11 3 401 5 867 6 760 1 848 -1 862 -15z m2126 10 c26 -6 31 -11 27 -28 -10 -40 -39 -121 -63 -177 -13 -31 -24 -64 -24 -73 0 -8 -9 -30 -20 -48 -11 -18 -20 -42 -20 -52 0 -11 -9 -38 -19 -60 -22 -47 -56 -139 -76 -208 -7 -25 -20 -57 -28 -70 -8 -12 -18 -39 -22 -58 -4 -19 -13 -44 -20 -55 -6 -11 -19 -42 -28 -70 -28 -87 -58 -169 -78 -211 -10 -22 -19 -49 -19 -60 0 -10 -7 -32 -16 -49 -15 -29 -30 -67 -74 -192 -11 -32 -27 -71 -34 -88 -8 -16 -18 -43 -22 -60 -4 -16 -15 -47 -25 -67 -11 -21 -19 -45 -19 -55 0 -10 -12 -40 -25 -68 -14 -27 -25 -57 -25 -65 0 -8 -12 -37 -25 -65 -14 -27 -25 -58 -25 -69 0 -10 -9 -33 -19 -50 -10 -17 -22 -47 -26 -66 -4 -19 -16 -51 -26 -70 -11 -19 -19 -42 -19 -50 0 -8 -11 -39 -25 -68 -14 -30 -25 -61 -25 -70 0 -10 -12 -39 -25 -67 -14 -27 -25 -57 -25 -65 0 -8 -12 -37 -25 -65 -14 -27 -25 -58 -25 -69 0 -10 -9 -33 -19 -50 -10 -17 -22 -47 -26 -66 -4 -19 -13 -46 -21 -60 -12 -23 -27 -61 -71 -190 -8 -25 -24 -63 -34 -86 -11 -22 -19 -47 -19 -55 0 -8 -8 -30 -19 -49 -10 -19 -22 -51 -26 -70 -4 -19 -15 -48 -25 -65 -10 -16 -21 -46 -25 -65 -4 -19 -13 -44 -20 -56 -7 -11 -20 -44 -29 -72 -8 -29 -22 -62 -30 -74 -9 -12 -16 -32 -16 -43 0 -11 -11 -42 -25 -70 -13 -27 -25 -57 -25 -65 0 -8 -8 -31 -19 -50 -10 -19 -22 -50 -26 -69 -4 -18 -17 -56 -29 -85 -13 -28 -35 -85 -51 -126 -15 -41 -36 -93 -46 -116 -10 -23 -19 -47 -19 -55 0 -8 -11 -36 -25 -64 -13 -27 -25 -57 -25 -65 0 -9 -9 -33 -19 -54 -11 -21 -23 -52 -27 -69 -3 -18 -15 -48 -25 -67 -11 -19 -24 -54 -29 -77 -12 -47 -24 -54 -40 -24 -16 30 -14 4623 2 4639 9 9 212 12 854 12 463 0 856 -3 874 -6z m-5830 -259 c0 -8 -4 -15 -10 -15 -5 0 -10 7 -10 15 0 8 5 15 10 15 6 0 10 -7 10 -15z m100 -151 c0 -16 -16 -19 -25 -4 -8 13 4 32 16 25 5 -4 9 -13 9 -21z m46 -60 c-5 -13 -10 -14 -18 -6 -6 6 -8 18 -4 28 5 13 10 14 18 6 6 -6 8 -18 4 -28z m7534 16 c0 -5 -4 -10 -10 -10 -5 0 -10 5 -10 10 0 6 5 10 10 10 6 0 10 -4 10 -10z m-7486 -76 c10 -25 7 -34 -9 -34 -9 0 -15 9 -15 25 0 28 15 34 24 9z m50 -60 c9 -24 7 -34 -8 -34 -16 0 -29 27 -20 41 8 14 21 11 28 -7z m7336 -10 c0 -8 -5 -12 -10 -9 -6 4 -8 11 -5 16 9 14 15 11 15 -7z m-7289 -63 c6 -16 21 -37 35 -46 13 -8 24 -22 24 -29 0 -8 11 -21 25 -30 14 -9 25 -23 25 -32 0 -8 7 -17 15 -20 8 -3 17 -14 20 -24 7 -22 53 -83 133 -175 12 -14 22 -30 22 -34 0 -5 21 -36 48 -69 26 -34 58 -77 72 -97 14 -20 55 -74 93 -121 37 -47 67 -89 67 -93 0 -5 24 -38 53 -74 28 -36 63 -82 77 -102 25 -36 36 -51 83 -110 13 -16 30 -40 36 -53 7 -13 19 -31 27 -40 30 -34 102 -129 137 -181 20 -29 54 -74 75 -100 22 -25 45 -56 51 -69 7 -13 19 -31 28 -40 8 -9 39 -51 69 -92 78 -109 86 -120 114 -150 14 -16 36 -47 50 -70 14 -23 34 -52 45 -63 11 -12 27 -31 35 -43 8 -12 29 -41 45 -64 17 -24 35 -50 40 -59 6 -9 18 -25 28 -36 18 -20 50 -62 97 -130 14 -20 45 -63 70 -95 25 -32 56 -75 70 -96 14 -20 32 -44 40 -53 8 -9 31 -38 50 -64 65 -89 89 -120 150 -201 17 -21 30 -42 30 -46 0 -4 11 -20 25 -36 65 -75 80 -96 182 -244 21 -30 59 -82 85 -115 26 -33 54 -69 62 -80 19 -24 115 -156 148 -203 43 -62 78 -107 96 -127 10 -11 31 -40 47 -65 27 -41 103 -140 139 -182 8 -9 20 -27 27 -40 6 -13 30 -45 53 -72 23 -28 46 -57 51 -67 22 -36 51 -76 90 -124 22 -27 54 -70 70 -95 17 -25 50 -71 75 -102 25 -31 68 -89 95 -128 79 -112 96 -136 161 -218 34 -43 69 -92 78 -110 20 -39 65 -54 80 -27 20 33 77 116 92 133 33 37 74 95 74 105 0 6 7 17 15 26 26 27 78 95 125 161 25 35 55 73 68 85 12 12 22 25 22 29 0 4 15 28 33 55 35 51 42 59 82 106 14 17 40 53 58 80 17 28 41 60 52 72 11 11 31 37 45 57 33 48 115 155 140 182 11 12 20 26 20 32 0 6 24 40 53 76 28 36 63 81 77 101 14 20 45 63 70 95 25 33 68 91 95 131 28 39 58 79 68 89 10 10 34 42 52 71 41 64 63 93 91 122 12 12 27 33 34 46 7 14 17 30 21 35 71 87 119 149 119 156 0 4 32 47 70 95 39 48 70 91 70 95 0 7 42 62 118 155 5 6 17 24 28 40 10 17 21 32 24 35 13 12 97 125 120 160 25 38 104 146 190 260 25 32 56 75 70 95 14 20 45 62 70 93 44 55 74 97 95 131 6 10 28 39 51 67 23 27 47 59 53 72 7 13 19 31 27 40 41 47 114 143 147 194 20 31 40 58 44 60 5 1 16 14 26 28 35 51 72 104 87 125 14 20 86 118 127 173 10 13 28 35 41 49 13 14 28 35 33 47 14 31 58 90 75 99 8 4 14 14 14 21 0 7 10 22 23 33 12 11 31 35 42 54 31 52 39 63 57 84 10 11 31 35 48 54 16 19 30 40 30 47 0 7 8 19 18 26 9 7 23 25 29 41 7 15 18 27 25 27 7 0 18 10 23 22 13 28 31 34 39 13 3 -10 -3 -25 -17 -38 -12 -12 -28 -34 -35 -49 -6 -16 -16 -28 -21 -28 -5 0 -14 -12 -20 -27 -6 -16 -25 -46 -41 -68 -32 -42 -78 -107 -95 -134 -46 -73 -85 -128 -124 -177 -5 -6 -16 -24 -25 -40 -9 -16 -32 -49 -51 -74 -19 -25 -39 -54 -44 -65 -9 -18 -38 -61 -76 -110 -9 -11 -34 -47 -55 -80 -22 -33 -60 -89 -85 -125 -70 -98 -98 -139 -120 -174 -11 -18 -34 -50 -51 -72 -17 -21 -39 -52 -48 -69 -9 -16 -30 -48 -47 -70 -16 -22 -50 -69 -74 -105 -24 -36 -58 -84 -74 -107 -17 -24 -37 -55 -46 -70 -9 -16 -29 -46 -46 -68 -16 -22 -50 -69 -74 -105 -24 -36 -59 -85 -76 -110 -18 -25 -64 -92 -103 -149 -39 -57 -90 -131 -114 -165 -87 -126 -134 -194 -207 -301 -42 -60 -88 -128 -103 -149 -15 -22 -34 -49 -42 -61 -59 -87 -116 -172 -123 -180 -8 -10 -45 -63 -142 -205 -24 -36 -58 -83 -74 -105 -17 -22 -38 -53 -47 -70 -9 -16 -33 -51 -53 -77 -20 -25 -45 -61 -56 -79 -11 -18 -27 -43 -35 -55 -8 -11 -27 -38 -42 -60 -15 -21 -41 -57 -57 -79 -17 -22 -35 -50 -40 -62 -5 -11 -15 -24 -21 -28 -5 -3 -19 -23 -31 -43 -11 -20 -42 -68 -70 -107 -90 -126 -153 -217 -264 -380 -44 -65 -89 -130 -100 -145 -11 -15 -39 -56 -62 -91 -24 -35 -51 -74 -60 -86 -22 -26 -51 -69 -101 -144 -107 -163 -132 -196 -157 -207 -24 -11 -29 -10 -41 5 -7 10 -14 21 -14 25 0 4 -6 13 -13 20 -13 13 -33 42 -77 108 -46 69 -119 174 -149 215 -17 22 -38 53 -47 69 -9 16 -20 34 -25 40 -25 29 -66 88 -84 117 -11 18 -27 43 -35 55 -8 11 -27 38 -42 60 -15 21 -50 71 -77 109 -28 39 -58 84 -67 100 -9 17 -33 50 -53 75 -20 25 -42 56 -49 70 -7 14 -26 43 -42 65 -17 22 -51 69 -75 105 -25 36 -61 88 -80 115 -20 28 -40 59 -46 70 -5 11 -23 38 -40 60 -27 36 -52 72 -99 140 -47 68 -72 104 -99 140 -17 22 -35 49 -40 60 -6 11 -26 43 -46 70 -19 28 -55 79 -80 115 -24 36 -62 91 -85 122 -22 32 -40 62 -40 67 0 6 -6 14 -13 18 -11 7 -35 40 -127 177 -19 29 -63 92 -92 132 -23 31 -38 53 -87 129 -14 21 -32 46 -39 55 -8 8 -30 40 -50 71 -51 78 -126 186 -161 234 -17 22 -38 54 -47 70 -17 31 -64 96 -75 105 -3 3 -14 19 -23 35 -9 17 -30 48 -47 70 -16 22 -50 69 -74 105 -24 36 -58 84 -74 107 -17 24 -37 55 -46 70 -8 16 -31 48 -50 73 -19 25 -39 54 -45 65 -6 11 -26 40 -45 65 -19 25 -42 59 -51 75 -9 17 -31 48 -48 70 -17 22 -54 73 -81 114 -28 40 -69 101 -93 135 -23 33 -60 88 -81 121 -22 33 -45 67 -53 75 -14 17 -66 91 -83 120 -5 9 -22 35 -37 56 -58 82 -115 164 -163 235 -27 41 -53 76 -56 79 -3 3 -14 19 -23 35 -9 17 -32 50 -51 75 -19 25 -38 52 -42 60 -3 8 -17 28 -30 43 -13 16 -23 33 -23 39 0 6 -11 21 -25 34 -14 13 -25 32 -25 44 0 11 -6 20 -14 20 -15 0 -26 21 -26 51 0 29 20 23 31 -10z m7244 20 c3 -5 1 -12 -5 -16 -5 -3 -10 1 -10 9 0 18 6 21 15 7z m-45 -97 c0 -14 -12 -19 -23 -8 -9 9 4 35 14 28 5 -3 9 -12 9 -20z m-46 -57 c-7 -19 -20 -22 -29 -7 -9 15 16 43 27 32 5 -5 6 -16 2 -25z m-44 -39 c0 -25 -12 -58 -21 -58 -10 0 -12 53 -2 63 10 11 23 8 23 -5z" style="fill: rgb(100, 14, 170);"/>
  </g>
</svg>